<?xml version="1.0" encoding="utf-8"?>
<!-- Generator: Adobe Illustrator 27.1.0, SVG Export Plug-In . SVG Version: 6.00 Build 0)  -->
<svg version="1.1" id="Layer_1" xmlns="http://www.w3.org/2000/svg" xmlns:xlink="http://www.w3.org/1999/xlink" x="0px" y="0px"
	 width="512px" height="512px" viewBox="0 0 512 512" enable-background="new 0 0 512 512" xml:space="preserve">
<title>Snap-Icon-</title>
<title>Snap-Icon-</title>
<path fill="#E09D18" d="M405.6,237.59c5.37,0.63,10.74,1.24,16.1,1.91c2.7,0.34,5.42,0.67,8.08,1.24c0.82,0.18,1.47,1.14,2.19,1.74
	c-0.76,0.55-1.46,1.47-2.28,1.59c-9.58,1.4-19.17,2.76-28.77,3.97c-10.91,1.38-21.84,2.59-32.76,3.88
	c-0.37,0.04-0.78,0.18-1.12,0.08c-0.93-0.27-1.82-0.64-2.73-0.97c0.47-0.83,0.74-1.92,1.44-2.46c4.4-3.39,8.88-6.67,13.35-9.95
	c4.48-3.28,8.99-6.51,13.47-9.79c0.87-0.64,1.64-1.41,3.06-2.66c-1.95-0.18-3.12-0.43-4.27-0.38c-9.02,0.39-18.03,0.86-27.05,1.24
	c-0.77,0.03-1.55-0.35-2.33-0.54c0.26-0.84,0.28-1.89,0.81-2.48c4.72-5.25,9.5-10.43,14.32-15.59c5.14-5.5,10.34-10.95,15.48-16.45
	c1-1.07,1.89-2.25,2.5-4c-15.63,3.32-31.25,6.65-46.88,9.97c-0.19-0.3-0.38-0.61-0.57-0.91c0.88-0.95,1.65-2.05,2.67-2.82
	c12.57-9.43,25.16-18.82,37.77-28.2c4.68-3.48,9.37-6.95,14.13-10.32c0.8-0.57,1.94-0.66,2.93-0.96c-0.19,1.02-0.1,2.21-0.61,3.03
	c-2.8,4.52-5.74,8.96-9.11,14.15c5.21-1.99,9.66-3.67,14.09-5.39c25.94-10.03,51.87-20.09,77.82-30.07c0.9-0.35,2.05-0.05,3.08-0.05
	c-0.56,0.93-0.9,2.13-1.7,2.75c-14.12,10.96-28.31,21.83-42.44,32.78c-9.89,7.66-19.73,15.4-29.58,23.12
	c-5.68,4.45-11.34,8.94-17.68,13.94c1.68,0,2.56,0.02,3.45,0c25.21-0.72,50.42-1.46,75.64-2.18c2.07-0.06,4.15-0.13,6.21-0.03
	c0.83,0.04,1.64,0.54,2.45,0.83c-0.64,0.54-1.2,1.32-1.94,1.57c-7.98,2.79-16.01,5.44-23.99,8.23
	c-15.52,5.42-31.01,10.91-46.51,16.37c-2.94,1.04-5.89,2.06-8.83,3.09C405.51,237.11,405.56,237.35,405.6,237.59z M172.8,208.72
	c-1.97,2.02-3.74,4.57-4.65,7.21c-2.01,5.85-3.61,11.86-5.04,17.89c-3.72,15.67-5.89,31.45-2.31,47.49
	c6.51,29.15,23.66,48.94,52.29,57.84c20.38,6.34,41.16,5.91,61.91,1.28c10.16-2.27,19.49-6.29,27.57-12.92
	c14.18-11.64,22.96-26.78,27.56-44.29c1.89-7.22,2.58-14.77,3.51-22.2c0.38-3.07-1.55-5.12-4.42-5.46c-0.2,1.17-0.44,2.36-0.61,3.55
	c-2.47,16.9-8.25,32.5-17.68,46.82c-14.22,21.59-34.13,32.17-60.61,31.65c1.67-0.37,2.73-0.61,3.8-0.83
	c15.71-3.31,30.18-8.65,41.46-21.07c15.13-16.68,23.91-36.09,26.82-58.23c0.98-7.44,0.8-15.04,1.81-22.48
	c1.25-9.17,3.56-18.01,14.16-22.13c-1.18-1.06-2.03-2.14-3.14-2.77c-6.54-3.69-13.92-1.76-17.83,4.84
	c-3.89,6.58-6.03,13.81-6.37,21.42c-0.65,14.6-3.24,28.86-8.65,42.38c-11.16,27.9-31.31,44.74-61.74,47.98
	c-33.36,3.56-62.95-18.52-69.1-51.41c-2.25-12.06-2.18-24.19-0.14-36.22c1.77-10.43,3.07-21.08,9.02-30.47
	C177.89,206.37,175.26,206.19,172.8,208.72z M99.57,190.53c-21.79-5.41-43.59-10.82-65.38-16.23c-2.65-0.66-5.28-1.37-7.96-1.86
	c-0.76-0.14-1.65,0.45-2.47,0.71c0.43,0.7,0.73,1.57,1.34,2.06c0.94,0.75,2.12,1.21,3.16,1.84C52.81,192.02,77.37,207,101.92,222
	c1.7,1.04,3.34,2.17,5,3.26c-9.06-0.05-17.88-0.55-26.7-0.91c-0.96-0.04-1.94,0.66-2.91,1.02c0.79,0.77,1.45,1.89,2.4,2.27
	c4.54,1.79,9.11,3.54,13.77,5c13.89,4.34,27.81,8.57,41.76,12.72c1.16,0.35,2.58-0.16,3.87-0.27c-0.65-1.13-1.1-2.43-1.98-3.34
	c-1.74-1.81-3.7-3.4-6.08-5.55c3.52,0.87,6.33,1.65,9.17,2.2c0.9,0.17,1.92-0.26,2.88-0.41c-0.32-0.9-0.43-1.98-1-2.69
	c-7.9-9.7-15.88-19.34-23.81-29.02c-1.16-1.41-2.23-2.9-3.81-4.96c9,1.28,17.17,2.45,25.35,3.6c3.35,0.47,6.69,0.97,10.06,1.28
	c0.63,0.06,1.59-0.57,1.93-1.15c0.2-0.35-0.4-1.31-0.83-1.84c-0.4-0.49-1.04-0.8-1.6-1.14c-8.34-5.1-16.56-10.41-25.07-15.22
	c-12.03-6.79-24.26-13.22-36.46-19.71c-1.02-0.54-2.42-0.38-3.64-0.55c0.43,1.21,0.59,2.64,1.35,3.59
	c4.6,5.72,9.34,11.31,14.02,16.97c0.93,1.13,1.79,2.32,3.06,3.96C101.2,190.84,100.37,190.73,99.57,190.53z M101.06,321.34
	c0.23,0.36,0.46,0.72,0.68,1.08c7.29-2.07,14.58-4.13,21.87-6.2c0.13,0.23,0.26,0.47,0.4,0.7c-14.89,13.86-28.74,28.69-41.72,44.49
	c1.09,0.09,2-0.11,2.66-0.63c3.79-2.95,7.62-5.85,11.24-8.98c18.94-16.35,37.82-32.77,56.69-49.2c0.55-0.48,0.74-1.37,1.1-2.07
	c-0.74-0.19-1.51-0.6-2.23-0.52c-3.64,0.42-7.26,1.03-10.9,1.45c-4.1,0.47-8.22,0.82-12.84,1.27c3.16-3.2,5.84-5.95,8.55-8.67
	c3.46-3.46,6.99-6.85,10.37-10.39c0.58-0.61,0.58-1.81,0.7-2.76c0.01-0.09-1.07-0.49-1.62-0.45c-6.38,0.43-12.75,0.93-19.12,1.38
	c-0.68,0.05-1.36-0.09-1.9-0.14c2.89-3.07,5.67-6.11,8.54-9.06c2.36-2.43,4.89-4.69,7.21-7.15c0.54-0.57,0.98-1.88,0.68-2.43
	c-0.29-0.55-1.58-0.82-2.41-0.77c-1.2,0.06-2.4,0.45-3.56,0.82c-24.19,7.63-48.37,15.28-72.54,22.93c-2.42,0.77-4.84,1.55-7.22,2.42
	c-0.49,0.18-0.82,0.81-1.23,1.23c0.49,0.36,0.93,0.81,1.48,1.03c0.4,0.16,0.93,0.04,1.4,0.02c11-0.46,22-0.99,33-1.37
	c4.89-0.17,9.8-0.03,14.85-0.03c-1.11,0.71-2.12,1.39-3.16,2c-16.82,9.79-33.65,19.55-50.47,29.35c-3.09,1.8-6.14,3.65-9.13,5.61
	c-0.58,0.38-0.76,1.38-1.12,2.09c0.82,0.25,1.63,0.58,2.47,0.72c0.43,0.07,0.91-0.17,1.36-0.31c10.33-3.16,20.68-6.25,30.97-9.52
	c13.24-4.2,26.45-8.53,40.45-13.07C111.2,311.75,105.2,315.67,101.06,321.34z M387.56,297.98c9.81-2.09,19.61-4.22,29.42-6.27
	c14.99-3.12,30-6.16,44.98-9.31c0.74-0.16,1.33-1.02,2-1.56c-0.88-0.54-1.73-1.5-2.64-1.57c-11.54-0.9-23.08-1.66-34.63-2.49
	c-12.2-0.88-24.39-1.81-36.58-2.7c-12.1-0.88-24.2-1.75-36.31-2.51c-0.9-0.06-1.86,0.74-2.8,1.14c0.61,0.84,1.04,1.99,1.87,2.45
	c3.28,1.83,6.68,3.45,10.04,5.13c4.5,2.24,9.01,4.46,14.11,6.99c-6.85,1.08-12.95,2.04-19.05,3.01c-5.01,0.8-10.03,1.56-15.02,2.43
	c-0.72,0.13-1.35,0.75-2.02,1.14c0.48,0.62,0.87,1.36,1.47,1.84c0.65,0.52,1.49,0.78,2.24,1.18c3.12,1.64,6.23,3.28,9.34,4.93
	c-5.21,0.91-10.27,1.24-15.32,1.74c-0.99,0.1-1.91,0.86-2.86,1.32c0.63,0.82,1.1,1.92,1.93,2.43
	c23.23,14.45,46.48,28.88,69.78,43.22c5.92,3.65,12,7.04,18.06,10.46c0.66,0.38,1.65,0.18,2.49,0.25c-0.35-0.77-0.51-1.74-1.08-2.27
	c-1.79-1.67-3.71-3.19-5.61-4.73c-14.2-11.47-28.41-22.93-42.61-34.4c-3.17-2.56-6.31-5.17-10.11-8.29
	c1.82-0.08,2.72-0.14,3.63-0.16c13.84-0.19,27.67-0.36,41.51-0.6c1.36-0.02,2.72-0.44,4.08-0.67c0.05-0.46,0.11-0.92,0.16-1.39
	c-10.14-3.42-20.28-6.84-30.41-10.26C387.59,298.32,387.57,298.15,387.56,297.98z M140.51,143.54
	c-12.17-6.91-24.36-13.79-36.51-20.74c-9.87-5.65-19.68-11.41-29.56-17.04c-0.76-0.43-1.88-0.24-2.83-0.35
	c0.25,0.89,0.25,1.99,0.79,2.63c22.6,26.59,45.24,53.15,67.92,79.68c2.44,2.85,5.02,5.62,7.81,8.13c0.9,0.81,2.65,0.67,4.02,0.97
	c0.03-1.29,0.47-2.76,0.01-3.84c-1.96-4.57-4.19-9.03-6.33-13.53c-3.12-6.57-6.25-13.15-9.37-19.72c3.95,0.55,7.42,1.64,10.87,2.76
	c8.85,2.85,17.68,5.76,26.56,8.51c1,0.31,2.27-0.23,3.41-0.38c-0.27-1.11-0.23-2.45-0.86-3.28c-2.04-2.7-4.28-5.24-6.52-7.78
	c-11.87-13.49-23.75-26.97-35.69-40.39c-0.61-0.69-1.81-0.86-2.73-1.27c0.02,1-0.26,2.12,0.1,2.98c2.32,5.54,4.78,11.02,7.19,16.53
	c0.81,1.86,1.61,3.73,2.41,5.6C140.96,143.18,140.74,143.36,140.51,143.54z M370.67,155.58c6.35-8.17,12.76-16.3,19.05-24.52
	c5.84-7.62,11.57-15.32,17.3-23.02c0.36-0.49,0.27-1.31,0.4-1.98c-0.66,0.07-1.33,0.09-1.96,0.24c-0.34,0.08-0.63,0.4-0.93,0.62
	c-13.71,10.1-27.42,20.21-41.13,30.31c-3.26,2.41-6.53,4.81-10.18,7.51c1-5.38,1.96-10.17,2.74-14.98c0.14-0.84-0.41-1.8-0.65-2.7
	c-0.68,0.52-1.67,0.9-1.99,1.6c-4.98,10.53-9.89,21.1-14.75,31.68c-0.25,0.54-0.15,1.6,0.22,1.97c0.34,0.34,1.39,0.3,1.94,0.04
	c2.03-0.98,4.01-2.07,5.96-3.2c4.93-2.86,9.84-5.76,15.45-9.06c-0.81,1.87-1.27,3.05-1.83,4.2c-2.99,6.17-6.06,12.32-8.97,18.53
	c-0.44,0.95-0.22,2.21-0.31,3.32c1.1-0.31,2.42-0.34,3.26-0.99c7.87-5.98,15.66-12.05,23.44-18.14c0.5-0.39,0.68-1.18,1.01-1.79
	c-0.74-0.16-1.56-0.59-2.2-0.41c-2.15,0.59-4.24,1.39-6.78,2.26C370.21,156.32,370.4,155.92,370.67,155.58z M223.01,361.44
	c1.92,4.91,5.42,7.89,10.54,8.74c9.03,1.49,18.11,2.01,27.24,0.98c3.39-0.38,5.76-2.21,7.16-5.25c2.24-4.87,2.24-10.04,1.64-15.22
	c-0.08-0.66-1-1.66-1.61-1.73c-2.4-0.26-3.79,1.12-3.99,3.49c-0.13,1.59-0.26,3.19-0.55,4.76c-0.98,5.37-3.76,8.89-7.91,8.99
	c-5.91,0.14-11.83-0.29-17.74-0.58c-0.58-0.03-1.17-0.21-1.75-0.45c-0.43-0.17-0.68-0.62-0.59-1.08l0,0
	c0.04-0.2,0.22-0.35,0.42-0.36c0.85-0.04,1.71-0.1,2.56-0.12c3.48-0.11,6.96-0.05,10.42-0.36c3.22-0.29,5.18-2.11,5.54-5.08
	c0.23-1.93,0.03-3.93-0.17-5.88c-0.21-2.12-1.57-2.58-3.6-2.55c-5.62,0.09-11.27,0.2-16.87-0.25c-3.88-0.31-7.69-1.54-11.52-2.35
	C220.67,351,221.07,356.48,223.01,361.44z M345.1,221.44c-2.7-5.84-7.75-6.18-11.33-0.9c-5.53,8.14-6.78,17.21-4.45,26.7
	c0.79,3.21,2.52,6.01,6.27,6.46c3.69,0.44,6-1.72,7.76-4.61c1.01-1.66,1.8-3.37,2.43-5.14c2.28-6.43,2.33-13.47,0.28-19.98
	C345.79,223.1,345.48,222.25,345.1,221.44z M340.39,238.45c-0.26,0.51-1.24,1.01-1.78,0.91c-0.56-0.1-1.44-0.96-1.41-1.44
	c0.16-2.29,0.3-4.65,1.02-6.79c0.51-1.5,2-1.24,2.75,0.11c0.12,0.21,0.21,0.44,0.29,0.68c0.48,1.5,0.4,3.12-0.1,4.6
	C340.95,237.18,340.7,237.83,340.39,238.45z M158.48,241.16c0.4-1.23,0.81-2.46,1.19-3.69c2.02-6.61,4.05-13.22,6-19.85
	c0.43-1.46,1.15-4.09,0.69-4.36c-2.19-1.27-3.34,0.95-4.37,2.32c-5.02,6.63-6.18,14.32-5.58,22.37c0.08,1.11,0.87,2.17,1.34,3.25
	C157.99,241.18,158.23,241.17,158.48,241.16z M264.8,435.22v-52.38c0-4.28-3.47-7.75-7.75-7.75h-22.1c-4.28,0-7.75,3.47-7.75,7.75
	v52.38c0,4.28,3.47,7.75,7.75,7.75h22.1C261.33,442.97,264.8,439.5,264.8,435.22z M322.04,193.56c-0.24,3.63-0.37,7.28-0.65,10.91
	c0,0,0.01,0.01,0.01,0.01c0,0,0.03,1.03-0.22,2.17c-0.01,0.04-0.01,0.07-0.02,0.11c-0.24,1-0.7,2.05-1.6,2.54
	c-0.11,0.16-0.21,0.32-0.32,0.5c-0.83-1.32-1.31-2.06-2.25-3.55c-1.28,1.83-2.49,3.56-3.7,5.29c-0.01-0.01-0.02-0.01-0.03-0.02
	l-0.05,0.07c-0.33,0.47-1.03,0.45-1.34-0.03l0,0l1.66-17.4c0,0,1.98-9.62,1.88-19.47c0,0,0,0,0,0c0,0,0,0,0,0
	c-0.05-5.04-0.65-10.13-2.34-14.04c-1.94-4.18-4.69-7.95-8.06-11.38c-2.92-2.98-6.35-5.47-9.87-7.91
	c3.75,6.76,9.05,12.6,10.27,21.07c-1.27-0.53-2.6-0.94-3.79-1.61c-9.21-5.19-18.69-9.87-29.18-11.67
	c-7.01-1.2-14.17-1.58-21.27-2.15c-2.3-0.19-3.81,1.76-3.71,4.31c0.1,2.39,1.32,3.5,3.8,3.47c11.52-0.15,22.67,1.81,33.3,6.27
	c7.63,3.2,14.63,7.39,19.63,14.24c0.9,1.23,1.56,2.63,2.34,3.95c-0.31,0.35-0.3,0.34-0.61,0.69c-1.64-0.75-3.4-1.32-4.91-2.28
	c-12.32-7.89-26.03-11.58-40.34-13.44c-3.54-0.46-7.13-0.56-10.69-0.81c-2.05-0.14-3.42,0.86-4.16,2.71
	c-1.12,2.78,0.15,4.85,3.13,5.18c6.44,0.71,12.96,1.02,19.31,2.19c10.54,1.94,20.52,5.57,29.12,12.22c2.43,1.88,4.49,4.25,6.6,6.51
	c0.71,0.76,1.05,1.87,1.55,2.83c-0.16,0.25-0.32,0.51-0.48,0.76c-1.24-0.37-2.55-0.59-3.7-1.15c-10.18-4.93-20.61-9.32-31.7-11.6
	c-7.34-1.51-14.86-2.17-22.32-2.98c-3.35-0.36-4.62,0.78-5.07,3.54c-0.45,2.68,0.71,4.38,3.42,4.69c6.44,0.73,12.97,0.95,19.33,2.13
	c11.69,2.16,23.18,5.12,32.82,12.69c2.21,1.73,4.33,3.63,5.06,6.45c-0.28,0.26-0.34,0.31-0.62,0.57
	c-5.43-1.87-10.87-3.75-16.73-5.77c0.09,1.69,0.13,2.97,0.24,4.24c1.64,19.25-0.95,37.79-10.09,54.98
	c-10.56,19.86-34.5,32.48-56.76,29.51c-14.38-1.92-24.88-10.01-31.19-23.25c-0.59-1.25-1.14-2.51-1.71-3.77l-0.8,0.28
	c1.2,3.7,2.02,7.59,3.67,11.08c7.6,16.11,19.65,27.11,37.56,30.19c27.08,4.65,52.57-9.83,63.09-35.25
	c4.58-11.06,6.65-22.69,7.86-34.52c0.62-6,1.35-11.98,4.33-17.39c1.56-2.84,3.31-5.55,6.67-6.51c0.96-0.28,2.08-0.45,3.02-0.22
	c1.42,0.34,2.32,1.45,0.79,2.59c-9.54,7.06-9.82,17.59-10.72,27.94c-1.29,14.87-4.35,29.26-12.84,41.87
	c-10.51,15.6-24.97,25.44-43.77,28c-21.47,2.92-39.57-3.99-53.83-20.25c-7.65-8.73-11.32-19.35-12.86-30.78
	c-1.63-12.11,0.14-24.02,1.92-35.94c0.86-5.76,1.72-11.53,2.61-17.29c0.17-1.11,0.54-2.19,0.72-3.3c0.52-3.2,0.9-6.43,1.52-9.61
	c0.57-2.92,1.4-5.78,2.09-8.68c0.44-1.84,1.27-3.72,1.17-5.55c-0.26-4.68,0.28-8.99,3.42-12.72c0.46-0.55,0.48-1.51,0.58-2.3
	c0.32-2.65,0.03-5.51,0.96-7.92c4.25-11.08,11.22-20.3,21.06-26.95c24.11-16.28,49.84-17.85,75.81-5.68
	c19.44,9.11,29.97,21,32.62,42.87C323.1,173.52,322.11,192.46,322.04,193.56z M228.53,183.7c-0.17-2.37-1.52-3.44-4.73-3.35
	c-1.02,0.13-2.51,0.28-3.99,0.53c-9.92,1.7-19.37,4.66-27.41,10.94c-1.36,1.06-2.37,3.09-2.7,4.83c-0.39,2.09,1.06,2.76,3.03,1.69
	c1.4-0.76,2.73-1.66,4.14-2.4c8.7-4.54,18.03-6.82,27.73-7.78C227.29,187.89,228.71,186.22,228.53,183.7z M230.77,167.43
	c-0.2-2.41-1.69-3.17-3.92-3.06c-2.59,0.43-5.2,0.78-7.77,1.3c-8.34,1.7-16.38,4.28-23.38,9.28c-1.37,0.98-2.52,2.81-2.94,4.46
	c-0.52,2.06,0.91,2.79,2.85,1.85c3.13-1.51,6.16-3.4,9.46-4.32c7.21-2.02,14.54-3.59,21.86-5.2
	C229.54,171.17,230.97,169.84,230.77,167.43z M233.35,150.82c-0.33-1.27-1.93-2.2-3.03-3.37c-6.1,1.53-11.71,2.47-16.94,4.4
	c-4.79,1.76-9.26,4.47-13.71,7.04c-1.65,0.95-2.76,2.98-1.5,4.8c0.42,0.61,2.7,0.3,3.95-0.12c5.85-1.98,11.59-4.32,17.48-6.18
	c3.47-1.09,7.16-1.44,10.72-2.26C232.52,154.62,233.92,153,233.35,150.82z"/>
</svg>
